# xmcd
#
# Track frame offsets:
# 150
# 15853
# 36099
# 55839
# 75567
# 98799
# 127636
# 140102
# 161536
# 178044
# 199628
# 204501
# 218737
# 249601
# 276770
# 305853
# 323758
#
# Disc length: 4708 seconds
#
# Revision: 0
# Processed by: cddbd v1.5.2PL0 Copyright (c) Steve Scherf et al.
# Submitted via: Audion 3.0.2 (http://www.panic.com/audion/)
#
DISCID=e5126211
DTITLE=Various Artist - A Different Kind Of Eighties Mix
DYEAR=1900
DGENRE=
TTITLE0=1
TTITLE1=Planet Rock
TTITLE2=Play At Your Own Risk
TTITLE3=Electric Kingdom
TTITLE4=Who You're Stealin' From?
TTITLE5=3
TTITLE6=Moody
TTITLE7=Situation
TTITLE8=Buffalo Gals
TTITLE9=Beat Box (Original Version)
TTITLE10=Body To Burn
TTITLE11=U Men
TTITLE12=4
TTITLE13=5
TTITLE14=Round and Round (Detroit Mix)
TTITLE15=Ouverture
TTITLE16=All Saints Day
EXTD=
EXTT0=
EXTT1=
EXTT2=
EXTT3=
EXTT4=
EXTT5=
EXTT6=
EXTT7=
EXTT8=
EXTT9=
EXTT10=
EXTT11=
EXTT12=
EXTT13=
EXTT14=
EXTT15=
EXTT16=
PLAYORDER=
